<?xml version="1.0" encoding="UTF-8" standalone="no"?>
<!DOCTYPE svg PUBLIC "-//W3C//DTD SVG 1.1//EN" "http://www.w3.org/Graphics/SVG/1.1/DTD/svg11.dtd">
<svg width="100%" height="100%" viewBox="0 0 1000 566" version="1.1" xmlns="http://www.w3.org/2000/svg" xmlns:xlink="http://www.w3.org/1999/xlink" xml:space="preserve" xmlns:serif="http://www.serif.com/" style="fill-rule:evenodd;clip-rule:evenodd;stroke-linejoin:round;stroke-miterlimit:2;">
    <g id="brackets" transform="matrix(2.898551,0,0,2.898551,-552.053729,-750.681042)">
        <path d="M190.459,443.62L190.459,269.62L255.459,269.62L255.459,294.42L217.859,294.42L217.859,418.82L255.459,418.82L255.459,443.62L190.459,443.62ZM470.459,443.62L470.459,418.82L508.059,418.82L508.059,294.42L470.459,294.42L470.459,269.62L535.459,269.62L535.459,443.62L470.459,443.62Z" style="fill:rgb(64,64,64);"/>
    </g>
    <g id="plugins" transform="matrix(0.72663,0,0,0.72663,-211.577816,146.17647)">
        <path d="M600.328,568.927L600.328,437.327L629.528,437.327L633.328,450.527C635.594,446.794 638.428,443.76 641.828,441.427C645.228,439.094 648.828,437.327 652.628,436.127C656.428,434.927 659.928,434.327 663.128,434.327C671.928,434.327 679.628,436.46 686.228,440.727C692.828,444.994 697.961,451.06 701.628,458.927C705.294,466.794 707.128,476.127 707.128,486.927C707.128,497.727 705.294,507.027 701.628,514.827C697.961,522.627 692.828,528.594 686.228,532.727C679.628,536.86 671.928,538.927 663.128,538.927C659.928,538.927 656.428,538.327 652.628,537.127C648.828,535.927 645.228,534.094 641.828,531.627C638.428,529.16 635.594,526.127 633.328,522.527L633.328,568.927L600.328,568.927ZM652.528,513.527C657.994,513.527 662.794,511.294 666.928,506.827C671.061,502.36 673.128,495.727 673.128,486.927C673.128,478.26 671.061,471.527 666.928,466.727C662.794,461.927 657.994,459.527 652.528,459.527C647.061,459.527 642.228,461.494 638.028,465.427C633.828,469.36 631.728,476.26 631.728,486.127C631.728,495.994 633.828,503.027 638.028,507.227C642.228,511.427 647.061,513.527 652.528,513.527ZM759.043,536.527C750.643,536.527 743.91,535.794 738.843,534.327C733.777,532.86 730.143,530.06 727.943,525.927C725.743,521.794 724.643,515.66 724.643,507.527L724.643,419.727L701.643,419.727L701.643,394.927L757.643,394.927L757.643,497.727C757.643,503.194 758.443,506.727 760.043,508.327C761.643,509.927 765.243,510.727 770.843,510.727L804.843,510.727L804.843,536.527L759.043,536.527ZM849.043,538.927C835.71,538.927 826.543,535.294 821.543,528.027C816.543,520.76 814.043,510.194 814.043,496.327L814.043,437.327L847.043,437.327L847.043,488.127C847.043,492.794 847.243,497.06 847.643,500.927C848.043,504.794 849.243,507.894 851.243,510.227C853.243,512.56 856.577,513.727 861.243,513.727C867.377,513.727 871.61,511.86 873.943,508.127C876.277,504.394 877.443,498.06 877.443,489.127L877.443,437.327L910.443,437.327L910.443,536.527L881.643,536.527L877.443,522.527C874.51,527.46 870.91,531.427 866.643,534.427C862.377,537.427 856.51,538.927 849.043,538.927ZM973.843,577.527C968.377,577.527 962.777,576.86 957.043,575.527C951.31,574.194 945.977,571.894 941.043,568.627C936.11,565.36 931.977,560.86 928.643,555.127L954.443,543.327C956.31,546.127 958.81,548.427 961.943,550.227C965.077,552.027 969.243,552.927 974.443,552.927C977.377,552.927 980.277,552.394 983.143,551.327C986.01,550.26 988.377,548.394 990.243,545.727C992.11,543.06 993.043,539.394 993.043,534.727L993.043,517.327C988.51,522.66 983.443,526.527 977.843,528.927C972.243,531.327 966.843,532.527 961.643,532.527C954.577,532.527 947.743,530.594 941.143,526.727C934.543,522.86 929.177,517.36 925.043,510.227C920.91,503.094 918.843,494.527 918.843,484.527C918.843,472.794 920.91,463.26 925.043,455.927C929.177,448.594 934.443,443.16 940.843,439.627C947.243,436.094 953.777,434.327 960.443,434.327C966.443,434.327 972.41,435.66 978.343,438.327C984.277,440.994 989.177,445.06 993.043,450.527L997.043,437.327L1025.843,437.327L1025.843,528.127C1025.843,539.994 1023.677,549.56 1019.343,556.827C1015.01,564.094 1008.943,569.36 1001.143,572.627C993.343,575.894 984.243,577.527 973.843,577.527ZM973.643,507.127C977.377,507.127 980.81,506.427 983.943,505.027C987.077,503.627 989.61,501.227 991.543,497.827C993.477,494.427 994.443,489.727 994.443,483.727C994.443,474.527 992.377,468.194 988.243,464.727C984.11,461.26 979.243,459.527 973.643,459.527C968.177,459.527 963.343,461.327 959.143,464.927C954.943,468.527 952.843,474.46 952.843,482.727C952.843,490.994 954.943,497.127 959.143,501.127C963.343,505.127 968.177,507.127 973.643,507.127ZM1042.043,536.527L1042.043,511.727L1074.443,511.727L1074.443,462.127L1047.243,462.127L1047.243,437.327L1107.443,437.327L1107.443,511.727L1139.843,511.727L1139.843,536.527L1042.043,536.527ZM1089.043,421.327C1083.71,421.327 1079.21,419.494 1075.543,415.827C1071.877,412.16 1070.043,407.66 1070.043,402.327C1070.043,397.05 1071.877,392.565 1075.543,388.871C1079.21,385.175 1083.71,383.327 1089.043,383.327C1094.32,383.327 1098.806,385.175 1102.499,388.871C1106.195,392.565 1108.043,397.05 1108.043,402.327C1108.043,407.66 1106.195,412.16 1102.499,415.827C1098.806,419.494 1094.32,421.327 1089.043,421.327ZM1148.443,536.527L1148.443,437.327L1177.843,437.327L1181.443,450.127C1182.91,447.86 1185.077,445.494 1187.943,443.027C1190.81,440.56 1194.31,438.494 1198.443,436.827C1202.577,435.16 1207.11,434.327 1212.043,434.327C1220.177,434.327 1226.71,435.794 1231.643,438.727C1236.577,441.66 1240.177,446.027 1242.443,451.827C1244.71,457.627 1245.843,464.727 1245.843,473.127L1245.843,536.527L1212.843,536.527L1212.843,479.927C1212.843,472.86 1211.71,467.694 1209.443,464.427C1207.177,461.16 1203.577,459.527 1198.643,459.527C1192.51,459.527 1188.11,461.794 1185.443,466.327C1182.777,470.86 1181.443,477.46 1181.443,486.127L1181.443,536.527L1148.443,536.527ZM1309.243,538.927C1300.977,538.927 1293.443,537.927 1286.643,535.927C1279.843,533.927 1274.043,531.06 1269.243,527.327C1264.443,523.594 1260.777,519.06 1258.243,513.727L1285.843,503.527C1287.043,507.394 1289.843,510.36 1294.243,512.427C1298.643,514.494 1303.777,515.527 1309.643,515.527C1314.043,515.527 1318.043,514.86 1321.643,513.527C1325.243,512.194 1327.043,510.06 1327.043,507.127C1327.043,505.66 1326.143,504.26 1324.343,502.927C1322.543,501.594 1318.777,500.46 1313.043,499.527L1295.043,496.327C1285.043,494.594 1277.043,491.26 1271.043,486.327C1265.043,481.394 1262.043,474.994 1262.043,467.127C1262.043,459.794 1264.277,453.727 1268.743,448.927C1273.21,444.127 1279.01,440.494 1286.143,438.027C1293.277,435.56 1300.91,434.327 1309.043,434.327C1318.91,434.327 1328.077,436.06 1336.543,439.527C1345.01,442.994 1351.243,449.06 1355.243,457.727L1327.643,467.927C1326.31,464.46 1324.043,461.86 1320.843,460.127C1317.643,458.394 1313.577,457.527 1308.643,457.527C1303.177,457.527 1299.243,458.26 1296.843,459.727C1294.443,461.194 1293.243,463.06 1293.243,465.327C1293.243,467.06 1294.01,468.46 1295.543,469.527C1297.077,470.594 1300.043,471.527 1304.443,472.327L1323.443,475.727C1336.11,477.86 1345.077,481.16 1350.343,485.627C1355.61,490.094 1358.243,496.527 1358.243,504.927C1358.243,512.527 1356.043,518.86 1351.643,523.927C1347.243,528.994 1341.343,532.76 1333.943,535.227C1326.543,537.694 1318.31,538.927 1309.243,538.927Z" style="fill:rgb(124,45,18);"/>
    </g>
    <g id="cc" transform="matrix(2.390057,0,0,2.390057,-273.128698,-294.809653)">
        <path d="M263.177,288.961C251.177,288.961 241.177,286.761 233.177,282.361C225.177,277.961 219.177,271.795 215.177,263.861C211.177,255.928 209.177,246.695 209.177,236.161C209.177,225.628 211.51,216.495 216.177,208.761C220.844,201.028 227.21,195.028 235.277,190.761C243.344,186.495 252.51,184.361 262.777,184.361C273.444,184.361 283.144,186.495 291.877,190.761C300.61,195.028 307.11,201.761 311.377,210.961L284.177,220.961C282.71,217.095 280.377,214.228 277.177,212.361C273.977,210.495 270.044,209.561 265.377,209.561C261.777,209.561 258.244,210.395 254.777,212.061C251.31,213.728 248.444,216.528 246.177,220.461C243.91,224.395 242.777,229.695 242.777,236.361C242.777,243.295 243.91,248.761 246.177,252.761C248.444,256.761 251.344,259.595 254.877,261.261C258.41,262.928 261.91,263.761 265.377,263.761C269.644,263.761 273.444,262.995 276.777,261.461C280.11,259.928 282.644,257.761 284.377,254.961L310.777,264.561C307.844,269.895 303.944,274.361 299.077,277.961C294.21,281.561 288.71,284.295 282.577,286.161C276.444,288.028 269.977,288.961 263.177,288.961ZM389.577,288.961C377.577,288.961 367.577,286.761 359.577,282.361C351.577,277.961 345.577,271.795 341.577,263.861C337.577,255.928 335.577,246.695 335.577,236.161C335.577,225.628 337.91,216.495 342.577,208.761C347.244,201.028 353.61,195.028 361.677,190.761C369.744,186.495 378.91,184.361 389.177,184.361C399.844,184.361 409.544,186.495 418.277,190.761C427.01,195.028 433.51,201.761 437.777,210.961L410.577,220.961C409.11,217.095 406.777,214.228 403.577,212.361C400.377,210.495 396.444,209.561 391.777,209.561C388.177,209.561 384.644,210.395 381.177,212.061C377.71,213.728 374.844,216.528 372.577,220.461C370.31,224.395 369.177,229.695 369.177,236.361C369.177,243.295 370.31,248.761 372.577,252.761C374.844,256.761 377.744,259.595 381.277,261.261C384.81,262.928 388.31,263.761 391.777,263.761C396.044,263.761 399.844,262.995 403.177,261.461C406.51,259.928 409.044,257.761 410.777,254.961L437.177,264.561C434.244,269.895 430.344,274.361 425.477,277.961C420.61,281.561 415.11,284.295 408.977,286.161C402.844,288.028 396.377,288.961 389.577,288.961Z" style="fill:rgb(249,115,22);"/>
    </g>
    <g id="clever" transform="matrix(0.72663,0,0,0.72663,407.427386,-93.299243)">
        <path d="M-195.7,272.4C-207.7,272.4 -217.7,270.2 -225.7,265.8C-233.7,261.4 -239.7,255.233 -243.7,247.3C-247.7,239.367 -249.7,230.133 -249.7,219.6C-249.7,209.067 -247.367,199.933 -242.7,192.2C-238.033,184.467 -231.667,178.467 -223.6,174.2C-215.533,169.933 -206.367,167.8 -196.1,167.8C-185.433,167.8 -175.733,169.933 -167,174.2C-158.267,178.467 -151.767,185.2 -147.5,194.4L-174.7,204.4C-176.167,200.533 -178.5,197.667 -181.7,195.8C-184.9,193.933 -188.833,193 -193.5,193C-197.1,193 -200.633,193.833 -204.1,195.5C-207.567,197.167 -210.433,199.967 -212.7,203.9C-214.967,207.833 -216.1,213.133 -216.1,219.8C-216.1,226.733 -214.967,232.2 -212.7,236.2C-210.433,240.2 -207.533,243.033 -204,244.7C-200.467,246.367 -196.967,247.2 -193.5,247.2C-189.233,247.2 -185.433,246.433 -182.1,244.9C-178.767,243.367 -176.233,241.2 -174.5,238.4L-148.1,248C-151.033,253.333 -154.933,257.8 -159.8,261.4C-164.667,265 -170.167,267.733 -176.3,269.6C-182.433,271.467 -188.9,272.4 -195.7,272.4ZM-62.3,270C-70.7,270 -77.433,269.267 -82.5,267.8C-87.567,266.333 -91.2,263.533 -93.4,259.4C-95.6,255.267 -96.7,249.133 -96.7,241L-96.7,153.2L-119.7,153.2L-119.7,128.4L-63.7,128.4L-63.7,231.2C-63.7,236.667 -62.9,240.2 -61.3,241.8C-59.7,243.4 -56.1,244.2 -50.5,244.2L-16.5,244.2L-16.5,270L-62.3,270ZM63.7,272.4C52.9,272.4 43.333,270.333 35,266.2C26.667,262.067 20.133,256.067 15.4,248.2C10.667,240.333 8.3,230.8 8.3,219.6C8.3,209.067 10.767,199.933 15.7,192.2C20.633,184.467 27.2,178.467 35.4,174.2C43.6,169.933 52.567,167.8 62.3,167.8C70.567,167.8 78,169.267 84.6,172.2C91.2,175.133 96.8,179.3 101.4,184.7C106,190.1 109.4,196.533 111.6,204C113.8,211.467 114.567,219.8 113.9,229L40.3,229C41.1,232.067 42.2,234.733 43.6,237C45,239.267 46.733,241.167 48.8,242.7C50.867,244.233 53.167,245.367 55.7,246.1C58.233,246.833 60.967,247.2 63.9,247.2C68.167,247.2 71.8,246.567 74.8,245.3C77.8,244.033 80.233,242.333 82.1,240.2L107.9,249.8C102.967,257 96.633,262.567 88.9,266.5C81.167,270.433 72.767,272.4 63.7,272.4ZM40.1,209.8L83.9,209.8C83.5,205.667 82.367,202.3 80.5,199.7C78.633,197.1 76.2,195.167 73.2,193.9C70.2,192.633 66.9,192 63.3,192C59.7,192 56.3,192.6 53.1,193.8C49.9,195 47.167,196.9 44.9,199.5C42.633,202.1 41.033,205.533 40.1,209.8ZM171.9,270L136.5,170.8L170.5,170.8L190.5,236.6L191.3,236.6L211.3,170.8L244.9,170.8L209.3,270L171.9,270ZM324.5,272.4C313.7,272.4 304.133,270.333 295.8,266.2C287.467,262.067 280.933,256.067 276.2,248.2C271.467,240.333 269.1,230.8 269.1,219.6C269.1,209.067 271.567,199.933 276.5,192.2C281.433,184.467 288,178.467 296.2,174.2C304.4,169.933 313.367,167.8 323.1,167.8C331.367,167.8 338.8,169.267 345.4,172.2C352,175.133 357.6,179.3 362.2,184.7C366.8,190.1 370.2,196.533 372.4,204C374.6,211.467 375.367,219.8 374.7,229L301.1,229C301.9,232.067 303,234.733 304.4,237C305.8,239.267 307.533,241.167 309.6,242.7C311.667,244.233 313.967,245.367 316.5,246.1C319.033,246.833 321.767,247.2 324.7,247.2C328.967,247.2 332.6,246.567 335.6,245.3C338.6,244.033 341.033,242.333 342.9,240.2L368.7,249.8C363.767,257 357.433,262.567 349.7,266.5C341.967,270.433 333.567,272.4 324.5,272.4ZM300.9,209.8L344.7,209.8C344.3,205.667 343.167,202.3 341.3,199.7C339.433,197.1 337,195.167 334,193.9C331,192.633 327.7,192 324.1,192C320.5,192 317.1,192.6 313.9,193.8C310.7,195 307.967,196.9 305.7,199.5C303.433,202.1 301.833,205.533 300.9,209.8ZM410.5,270L410.5,170.8L436.7,170.8L441.9,189C447.767,181.133 454.567,175.633 462.3,172.5C470.033,169.367 477.9,167.8 485.9,167.8C489.1,167.8 492.267,168 495.4,168.4C498.533,168.8 501.567,169.333 504.5,170L504.5,202C501.167,200.667 497.333,199.633 493,198.9C488.667,198.167 484.3,197.8 479.9,197.8C472.033,197.8 465.4,199.167 460,201.9C454.6,204.633 450.5,208.7 447.7,214.1C444.9,219.5 443.5,226.133 443.5,234L443.5,270L410.5,270Z" style="fill:rgb(124,45,18);"/>
    </g>
</svg>
